<?xml version="1.0" standalone="no"?>
<!DOCTYPE svg PUBLIC "-//W3C//DTD SVG 20010904//EN"
 "http://www.w3.org/TR/2001/REC-SVG-20010904/DTD/svg10.dtd">
<svg version="1.0" xmlns="http://www.w3.org/2000/svg"
 width="1200.000000pt" height="1200.000000pt" viewBox="0 0 1200.000000 1200.000000"
 preserveAspectRatio="xMidYMid meet">

<g transform="translate(0.000000,1200.000000) scale(0.100000,-0.100000)"
fill="#000000" stroke="none">
<path d="M5035 7928 c-410 -19 -720 -80 -916 -178 -30 -16 -98 -57 -150 -91
-112 -75 -325 -283 -414 -407 -59 -81 -170 -253 -177 -273 -2 -6 -34 -1 -81
11 -43 11 -108 23 -143 26 l-64 7 -81 167 -81 167 -97 6 c-201 13 -471 20
-471 11 0 -4 24 -70 53 -146 l52 -138 221 0 220 0 33 -34 34 -35 -29 -6 c-134
-28 -223 -75 -298 -155 -95 -101 -126 -226 -133 -534 -10 -386 44 -748 162
-1086 101 -289 241 -434 490 -509 83 -25 249 -51 320 -50 l50 0 -80 24 c-283
83 -508 238 -597 410 -128 248 -215 665 -225 1085 -10 420 32 562 194 647 122
65 285 71 468 17 49 -14 2280 -188 2335 -182 14 2 -445 63 -1020 137 -575 73
-1058 136 -1073 140 l-29 6 69 105 c234 354 508 572 826 654 125 33 329 62
527 76 198 14 857 19 1640 13 533 -4 890 -51 1110 -147 238 -103 505 -352 676
-629 27 -43 40 -73 33 -76 -6 -2 -489 -65 -1073 -141 -583 -76 -1046 -138
-1028 -139 88 -3 2282 170 2327 183 303 89 560 8 624 -197 36 -118 44 -214 38
-466 -11 -468 -116 -929 -261 -1145 -96 -142 -322 -284 -561 -352 l-80 -23 50
0 c70 -1 237 25 320 50 181 54 333 172 407 314 151 292 249 769 250 1215 0
347 -52 543 -169 637 -53 42 -121 79 -170 94 -24 7 -43 15 -43 19 0 3 17 23
38 43 l38 37 219 0 220 0 53 138 c28 76 52 142 52 146 0 9 -270 2 -471 -11
l-97 -6 -81 -167 -81 -167 -108 -6 c-59 -3 -143 -15 -187 -26 -48 -13 -81 -17
-83 -12 -7 21 -121 197 -178 275 -32 45 -117 140 -189 212 -306 307 -549 403
-1150 455 -153 13 -1736 19 -1980 7z"/>
<path d="M5673 6673 c9 -2 25 -2 35 0 9 3 1 5 -18 5 -19 0 -27 -2 -17 -5z"/>
<path d="M6203 6673 c9 -2 25 -2 35 0 9 3 1 5 -18 5 -19 0 -27 -2 -17 -5z"/>
<path d="M2932 6531 c-94 -209 -82 -392 29 -468 96 -66 243 -122 514 -198 179
-50 585 -145 619 -145 44 0 -72 166 -208 298 -119 115 -229 191 -389 267 -103
49 -286 119 -293 113 -1 -2 56 -74 127 -160 71 -87 129 -160 129 -163 0 -12
-70 -3 -131 18 -142 48 -287 164 -340 272 -29 59 -31 70 -28 149 2 47 3 86 3
86 -1 0 -15 -31 -32 -69z"/>
<path d="M8953 6510 c0 -61 -5 -87 -28 -138 -50 -111 -209 -238 -357 -283 -36
-11 -79 -19 -94 -17 -26 3 -22 9 104 163 72 88 129 161 128 163 -7 6 -190 -64
-293 -113 -157 -74 -269 -150 -380 -258 -103 -99 -171 -184 -209 -259 -21 -40
-22 -48 -8 -48 28 0 422 90 573 131 430 118 605 204 639 315 28 94 9 235 -47
358 l-28 61 0 -75z"/>
<path d="M4392 5968 c-16 -29 -44 -80 -62 -112 l-33 -60 12 -70 c17 -101 83
-293 137 -396 79 -155 177 -266 289 -331 64 -37 207 -83 310 -100 164 -27 687
-7 752 29 7 4 -173 25 -400 45 -226 21 -421 40 -432 42 -11 2 -51 39 -89 81
l-69 76 446 -3 c245 -2 444 -3 443 -2 -1 2 -206 27 -456 58 -249 30 -454 55
-455 57 -13 13 -133 213 -130 216 2 2 240 -8 530 -23 290 -14 529 -24 531 -22
2 2 -234 43 -524 91 -290 48 -538 91 -551 95 -19 6 -31 26 -58 95 -19 49 -33
89 -31 91 2 1 291 -26 643 -60 352 -35 641 -62 643 -61 1 2 -10 6 -25 9 -68
14 -1360 298 -1375 303 -11 3 -24 -10 -46 -48z"/>
<path d="M6778 5862 c-388 -86 -706 -158 -704 -159 1 -1 292 26 646 61 355 35
646 63 648 61 7 -6 -68 -180 -80 -184 -7 -2 -258 -46 -558 -97 -300 -51 -534
-93 -521 -93 13 -1 251 10 528 24 278 14 512 25 519 23 8 -2 -8 -36 -47 -98
-33 -52 -64 -101 -68 -108 -5 -9 -148 -30 -461 -67 -250 -30 -458 -56 -463
-58 -4 -1 193 -1 439 1 396 4 445 3 438 -11 -5 -8 -36 -44 -69 -79 l-60 -63
-432 -40 c-238 -22 -427 -43 -420 -46 37 -21 285 -43 487 -43 241 1 350 17
493 72 191 74 335 238 437 497 36 94 90 287 90 326 0 19 -119 239 -128 238 -4
0 -325 -71 -714 -157z"/>
<path d="M3012 5760 c-29 -4 -55 -10 -57 -12 -3 -2 30 -10 73 -17 310 -50 624
-170 775 -296 80 -66 116 -119 252 -370 119 -218 160 -280 236 -355 69 -68
205 -142 301 -165 217 -50 562 -14 1053 111 225 57 226 57 -95 25 -431 -44
-758 -49 -923 -16 -132 27 -257 116 -341 243 -24 37 -76 128 -116 202 -156
289 -199 348 -330 444 -222 164 -553 246 -828 206z"/>
<path d="M8558 5755 c-218 -36 -441 -143 -582 -281 -70 -69 -94 -106 -221
-339 -54 -99 -115 -205 -136 -236 -80 -119 -208 -208 -338 -234 -190 -39 -569
-26 -1171 42 -30 3 -52 3 -49 -1 10 -11 339 -85 494 -110 267 -44 336 -50 555
-51 198 0 220 2 277 22 135 49 249 138 330 258 22 33 84 141 138 240 129 238
177 309 256 372 109 89 284 171 482 228 98 29 315 74 356 76 26 1 26 1 -4 10
-53 17 -292 20 -387 4z"/>
<path d="M3040 5607 c0 -15 82 -212 119 -285 58 -116 154 -254 214 -308 58
-52 158 -103 257 -129 75 -20 347 -34 337 -17 -4 5 -24 13 -44 16 -72 13 -208
58 -277 92 -95 47 -156 94 -203 156 -60 79 -72 101 -99 175 l-24 68 0 -70 -1
-70 -21 25 c-11 14 -70 95 -131 180 -117 165 -127 178 -127 167z"/>
<path d="M8809 5422 l-134 -187 -6 70 c-3 39 -6 60 -7 49 -4 -49 -92 -200
-149 -260 -88 -90 -294 -186 -446 -209 -81 -12 -52 -25 56 -25 153 0 283 28
401 88 95 47 218 197 306 372 38 76 122 281 117 286 -2 2 -64 -80 -138 -184z"/>
<path d="M3125 4130 l400 -68 2555 64 c1405 35 2607 65 2670 67 63 1 -1266 3
-2955 4 l-3070 1 400 -68z"/>
</g>
</svg>
